<svg
  aria-labelledby="loading-aria"
  viewBox="0 0 512 512"
  preserveAspectRatio="none"
>
  <title id="loading-aria">Loading...</title>
  <rect
    x="0"
    y="0"
    width="100%"
    height="100%"
    clip-path="url(#clip-path)"
    style='fill: url("#fill");'
  ></rect>
  <defs>
    <clipPath id="clip-path">
        <path d="M 383.306 433.232 c 6.051 -1.378 11.166 -7.396 11.424 -13.451 l 10.417 -275.86 c 0.28 -6.55 -4.61 -10.7 -10.92 -9.253 L 229.384 172.45 c -4.812 1.103 -9.303 -2.687 -9.23 -7.8 l 0.196 -13.83 c 0.093 -6.573 -4.964 -10.735 -11.297 -9.282 L 83.08 170.789 c -6.323 1.45 -11.402 7.932 -11.344 14.465 l 2.3 261.014 c 0.043 4.885 -0.903 30.738 6.162 47.217 c 7.129 16.628 13.573 13.606 18.625 12.317 l 284.483 -72.57 z" /> 
        <path d="M 410.236 185.18 c -0.221 -7.906 -4.714 -9.861 -9.145 -8.761 l -289.683 63.85 c -9.907 2.18 -21.677 9.498 -22.788 17.805 c -1.741 12.895 2.888 63.021 7.14 131.914 c 4.259 70.18 6.283 114.111 -0.692 117.109 l 310.52 -79.17 c 7.724 -1.962 7.737 -14.23 7.94 -22.186 c 1.996 -78.157 -2.17 -179.834 -3.292 -220.561 z" />
    </clipPath>
    <linearGradient id="fill">
      <stop
        offset="0.599964"
        stop-color="#ebebeb"
        stop-opacity="1"
      >
        <animate
          attributeName="offset"
          values="-2; -2; 1"
          keyTimes="0; 0.25; 1"
          dur="2s"
          repeatCount="indefinite"
        ></animate>
      </stop>
      <stop
        offset="1.59996"
        stop-color="#dbdbdb"
        stop-opacity="1"
      >
        <animate
          attributeName="offset"
          values="-1; -1; 2"
          keyTimes="0; 0.25; 1"
          dur="2s"
          repeatCount="indefinite"
        ></animate>
      </stop>
      <stop
        offset="2.59996"
        stop-color="#ebebeb"
        stop-opacity="1"
      >
        <animate
          attributeName="offset"
          values="0; 0; 3"
          keyTimes="0; 0.25; 1"
          dur="2s"
          repeatCount="indefinite"
        ></animate>
      </stop>
    </linearGradient>
  </defs>
</svg>