<svg
  role="img"
  width="512"
  height="512"
  aria-labelledby="loading-aria"
  viewBox="0 0 512 512"
  preserveAspectRatio="none"
>
  <title id="loading-aria">Loading...</title>
  <rect
    x="0"
    y="0"
    width="100%"
    height="100%"
    clip-path="url(#clip-path)"
    style='fill: url("#fill");'
  ></rect>
  <defs>
    <clipPath id="clip-path">
        <path d="M 375.444 120.13 c 18.776 -1.24 46.568 -2.304 67.632 23.696 c 23.248 28.697 23.696 85.157 -21.228 122.43 c -47.051 39.037 -98.733 -142.67 -46.404 -146.126 z" /> 
        <path d="M 385.81 145.927 s 27.646 -8.08 43.672 19.009 c 13.06 22.073 5.036 59.193 -15.506 75.938 c -24.43 19.914 -45.007 -96.798 -28.165 -94.947 z" /> 
        <path d="M 449.71 179.614 s -4.593 -37.758 -39.096 -47.431" /> 
        <path d="M 375.444 120.13 c 18.776 -1.24 46.568 -2.304 67.632 23.696 c 23.248 28.697 23.696 85.157 -21.228 122.43 c -47.051 39.037 -98.733 -142.67 -46.404 -146.126 z" /> 
        <path d="M 380.371 171.174 c 40.504 -21.05 55.482 26.473 55.482 26.473 c 0.01 0 0.01 -0.01 0.02 -0.01 c 1.219 -11.806 -0.577 -23.545 -5.99 -32.703 c -16.022 -27.088 -43.666 -19.006 -43.666 -19.006 c -5.27 -0.575 -6.873 10.434 -5.846 25.246 z" /> 
        <path d="M 145.992 120.13 c -18.777 -1.24 -46.57 -2.304 -67.633 23.696 c -23.248 28.697 -23.695 85.157 21.228 122.43 c 47.052 39.037 98.734 -142.67 46.405 -146.126 z" /> 
        <path d="M 145.992 120.13 c -18.777 -1.24 -46.57 -2.304 -67.633 23.696 c -23.248 28.697 -23.695 85.157 21.228 122.43 c 47.052 39.037 98.734 -142.67 46.405 -146.126 z" /> 
        <path d="M 71.58 178.664 s 4.594 -37.758 39.097 -47.431" /> 
        <path d="M 145.992 120.13 c -18.777 -1.24 -46.57 -2.304 -67.633 23.696 c -23.248 28.697 -23.695 85.157 21.228 122.43 c 47.052 39.037 98.734 -142.67 46.405 -146.126 z" /> 
        <path d="M 135.625 145.927 s -27.646 -8.08 -43.673 19.009 c -13.06 22.073 -5.036 59.193 15.506 75.938 c 24.43 19.914 45.008 -96.798 28.167 -94.947 z" /> 
        <path d="M 141.468 171.174 c -40.504 -21.05 -55.483 26.473 -55.483 26.473 c -0.01 0 -0.01 -0.01 -0.019 -0.01 c -1.219 -11.806 0.576 -23.545 5.99 -32.703 c 16.02 -27.088 43.666 -19.006 43.666 -19.006 c 5.27 -0.575 6.873 10.434 5.846 25.246 z" /> 
        <path d="M 417.108 236.133 c -20.9 -41.796 -9.84 -43.715 -22.383 -85.405 c -14.445 -48.012 -60.302 -91.466 -133.687 -91.466 c -74.176 0 -119.242 43.454 -133.687 91.466 c -12.543 41.69 -1.484 43.61 -22.383 85.405 c -22.946 45.89 -32.636 171 156.07 171 s 179.016 -125.11 156.07 -171 z" /> 
        <path d="M 404.304 235.892 c -19.184 -38.365 -9.032 -40.129 -20.546 -78.4 c -13.26 -44.073 -55.355 -83.961 -122.72 -83.961 c -68.091 0 -109.46 39.888 -122.72 83.962 c -11.514 38.27 -1.362 40.034 -20.547 78.4 c -21.064 42.124 -29.959 156.97 143.267 156.97 s 164.33 -114.846 143.266 -156.97 z" /> 
        <path d="M 348.016 114.824 c 0 22.36 -38.68 40.486 -86.391 40.486 c -47.712 0 -86.39 -18.126 -86.39 -40.486 c 0 -22.359 38.678 -40.485 86.39 -40.485 s 86.391 18.126 86.391 40.485 z" /> 
        <path d="M 315.581 84.027 c 1.436 0.47 2.924 0.977 4.456 1.524 M 295.5 78.882 s 4.623 0.721 11.874 2.69" /> 
        <path d="M 417.108 236.133 c -20.9 -41.796 -9.84 -43.715 -22.383 -85.405 c -14.445 -48.012 -60.302 -91.466 -133.687 -91.466 c -74.176 0 -119.242 43.454 -133.687 91.466 c -12.543 41.69 -1.484 43.61 -22.383 85.405 c -22.946 45.89 -32.636 171 156.07 171 s 179.016 -125.11 156.07 -171 z" /> 
        <path d="M 340.15 183.848 c -36.86 -8.935 -63.12 15.826 -73.804 28.538 c -2.775 3.304 -7.84 3.304 -10.617 0 c -10.682 -12.712 -36.943 -37.473 -73.803 -28.538 c -48.873 11.849 -56.278 54.304 -51.342 76.52 c 4.611 20.748 21.711 40.636 48.888 50.41 c 3.28 1.18 5.193 4.586 4.447 7.99 c -3.297 15.052 -9.88 54.481 5.51 76.765 a 16.787 16.787 0 11.525 7.067 c 7.013 0.964 19.15 3.588 29.35 10.667 c 16.127 11.19 30.734 10.504 30.734 10.504 s 14.607 0.686 30.733 -10.504 c 10.2 -7.079 22.337 -9.703 29.35 -10.667 a 16.787 16.787 0 11.525 -7.067 c 15.39 -22.284 8.807 -61.713 5.511 -76.766 c -0.746 -3.403 1.167 -6.808 4.447 -7.988 c 27.177 -9.775 44.278 -29.663 48.888 -50.412 c 4.937 -22.215 -2.47 -64.67 -51.342 -76.519 z" /> 
        <path d="M 383.388 221.828 c 2.42 5.75 0.107 12.434 -5.353 15.453 c -37.715 20.856 -86.821 12.016 -108.19 7.654 c -6.34 -1.294 -12.886 -1.238 -19.185 0.239 c -53.32 12.505 -89.197 -1.04 -105.331 -9.367 c -5.932 -3.062 -8.398 -10.327 -5.411 -16.296 c 5.211 -10.417 16.322 -25.621 43.583 -32.632 c 36.73 -9.447 61.544 12.793 72.231 25.504 a 6.915 6.915 0 10.61 0 c 10.688 -12.711 36.2 -33.946 73.06 -25.016 c 25.446 6.174 37.626 19.336 43.986 34.46 z" /> 
        <path d="M 340.15 183.848 c -36.86 -8.935 -63.12 15.826 -73.804 28.538 c -2.775 3.304 -7.84 3.304 -10.617 0 c -10.682 -12.712 -36.943 -37.473 -73.803 -28.538 c -48.873 11.849 -56.278 54.304 -51.342 76.52 c 4.611 20.748 21.711 40.636 48.888 50.41 c 3.28 1.18 5.193 4.586 4.447 7.99 c -3.297 15.052 -9.88 54.481 5.51 76.765 a 16.787 16.787 0 11.525 7.067 c 7.013 0.964 19.15 3.588 29.35 10.667 c 16.127 11.19 30.734 10.504 30.734 10.504 s 14.607 0.686 30.733 -10.504 c 10.2 -7.079 22.337 -10.653 29.35 -11.617 c 4.656 -0.64 8.854 -2.248 11.525 -6.117 c 15.39 -22.284 8.807 -61.713 5.511 -76.766 c -0.746 -3.403 1.167 -6.808 4.447 -7.988 c 27.177 -9.775 44.278 -29.663 48.888 -50.412 c 4.937 -22.215 -2.47 -64.67 -51.342 -76.519 z" /> 
        <path d="M 343.263 381.046 c -1.587 6.27 -4.984 13.192 -7.654 17.059 c -2.67 3.866 -9.832 3.86 -14.487 4.496 c -7.011 0.96 -19.152 3.591 -29.355 10.669 c -16.122 11.19 -30.733 10.497 -30.733 10.497 s -14.601 0.694 -30.732 -10.497 c -10.194 -7.078 -22.335 -9.71 -29.346 -10.669 c -4.655 -0.636 -10.554 -0.59 -13.79 -3.996 c -3.65 -3.838 -6.815 -12.673 -8.307 -17.519 c 11.695 3.24 47.196 13.393 60.895 21.25 c 17.034 9.775 35.768 5.376 43.748 0 c 7.495 -5.055 36.154 -17.48 59.761 -21.29 z" /> 
        <path d="M 188.563 399.363 c 16.35 4.87 30.54 7.482 40.982 14.094 c 17.68 11.193 31.493 10.314 31.493 10.314 s 14.606 0.686 30.733 -10.504 c 9.673 -6.712 23.752 -9.363 41.476 -13.904" /> 
        <path d="M 290.087 337.569 c -1.401 -0.617 -5.773 -0.478 -12.078 -1.08 c -2.55 -0.242 -9.65 -0.741 -16.383 -0.741 c -6.733 0 -14.053 0.41 -16.606 0.628 c -6.31 0.538 -10.794 0.576 -12.195 1.193 c -1.9 0.836 -0.363 5.293 2.012 8.899 c 3.367 5.11 15.775 12.894 26.622 12.894 s 23.255 -7.784 26.622 -12.894 c 2.375 -3.606 3.906 -8.063 2.006 -8.9 z" /> 
        <path d="M 288.53 340.55 c -1.566 -0.202 -4.472 1.68 -11.01 1.027 c -2.643 -0.264 -8.902 -0.755 -15.891 -0.755 c -6.99 0 -13.517 0.407 -16.164 0.645 c -6.544 0.587 -9.56 -1.357 -11.077 -0.916 c -2.895 0.84 -1.585 7.744 0.88 11.35 c 3.494 5.11 14.919 13.997 26.178 13.997 c 11.26 0 22.935 -8.638 26.43 -13.749 c 2.466 -3.605 3.682 -11.206 0.654 -11.598 z" /> 
        <path d="M 288.53 340.55 c -1.401 -0.616 -4.85 -0.545 -11.156 -1.147 c -2.55 -0.243 -9.013 -0.673 -15.745 -0.673 c -6.733 0 -13.444 0.347 -15.996 0.565 c -6.311 0.539 -9.843 0.64 -11.245 1.256 c -1.9 0.836 -0.365 4.403 2.01 8.008 c 3.367 5.11 14.214 12.895 25.06 12.895 c 10.848 0 21.696 -7.785 25.063 -12.895 c 2.375 -3.605 3.909 -7.172 2.009 -8.008 z" /> 
        <path d="M 277.87 356.281 c -4.68 2.898 -10.549 5.176 -16.413 5.176 c -6.03 0 -12.059 -2.584 -16.8 -5.597 c -0.225 0 2.269 1.496 3.6 1.496 c 6.083 0 13.02 0.854 13.02 0.854 s 7.315 -1.688 13.233 -0.616 c 1.272 0.23 4.003 -1.313 3.36 -1.313 z" /> 
        <path d="M 288.383 345.353 c 0.359 -1.334 0.234 -2.344 -0.64 -2.74 c -1.364 -0.618 -5.138 -0.736 -11.268 -1.296 c -2.474 -0.226 -8.311 -0.523 -14.845 -0.523 c -6.54 0 -12.64 0.221 -15.121 0.424 c -6.13 0.499 -9.97 0.775 -11.332 1.394 c -0.874 0.398 -0.998 1.403 -0.645 2.736 c -1.129 -2.317 -1.467 -4.215 -0.145 -4.795 c 1.405 -0.618 4.935 -0.72 11.248 -1.258 c 2.553 -0.218 9.263 -0.566 15.995 -0.566 c 6.731 0 13.192 0.432 15.743 0.675 c 6.307 0.6 9.754 0.536 11.155 1.149 c 1.326 0.58 0.983 2.483 -0.145 4.8 z" /> 
        <path d="M 278.737 284.357 c -3.446 -0.09 -8.585 1.533 -11.48 2.816 c -2.996 1.328 -8.377 1.328 -11.372 0 c -2.896 -1.283 -8.034 -2.906 -11.48 -2.816 c -10.723 0.277 -15.698 6.39 -15.599 16.333 c 0.075 7.507 4.427 22.433 32.765 22.433 c 28.055 0 32.342 -14.681 32.764 -22.433 c 0.54 -9.93 -4.875 -16.056 -15.598 -16.333 z" /> 
        <path d="M 255.744 300.637 c 2.384 4.668 0.468 10.418 -3.283 12.333 c -3.75 1.914 -8.35 -0.17 -11.022 -4.68 c -4.013 -6.776 -2.317 -12.187 1.434 -14.1 c 3.75 -1.915 9.138 -0.867 12.871 6.447 z" /> 
        <path d="M 254.59 298.52 c 2.384 4.668 1.276 10.006 -2.475 11.92 c -3.75 1.914 -8.722 -0.318 -11.105 -4.987 c -2.384 -4.668 -1.276 -10.005 2.475 -11.92 c 3.75 -1.914 8.722 0.319 11.105 4.987 z" /> 
        <path d="M 254.59 298.52 c 0.445 0.873 0.773 1.777 0.976 2.671 c -2.393 -4.607 -7.677 -5.959 -11.234 -4.143 c -3.557 1.815 -4.06 6.142 -1.708 10.79 a 11.693 11.693 0 1 -1.615 -2.385 c -2.385 -4.672 -1.278 -10.006 2.473 -11.921 c 3.75 -1.916 8.722 0.316 11.107 4.988 z" /> 
        <path d="M 267.505 300.637 c -2.383 4.668 -0.467 10.418 3.284 12.333 c 3.75 1.914 8.35 -0.17 11.022 -4.68 c 4.013 -6.776 2.318 -12.187 -1.433 -14.1 c -3.75 -1.915 -9.139 -0.867 -12.873 6.447 z" /> 
        <path d="M 268.66 298.52 c -2.384 4.668 -1.276 10.006 2.474 11.92 c 3.751 1.914 8.722 -0.318 11.106 -4.987 c 2.383 -4.668 1.276 -10.005 -2.475 -11.92 c -3.75 -1.914 -8.722 0.319 -11.105 4.987 z" /> 
        <path d="M 268.66 298.52 a 11.468 11.468 0 0 -0.975 2.671 c 2.393 -4.607 7.677 -5.959 11.234 -4.143 c 3.557 1.815 4.06 6.142 1.707 10.79 a 11.697 11.697 0 1.616 -2.385 c 2.385 -4.672 1.277 -10.006 -2.474 -11.921 c -3.75 -1.916 -8.722 0.316 -11.107 4.988 z" /> 
        <path d="M 302.174 263.43 c 0 6.433 11.284 11.245 24.007 11.245 c 12.724 0 24.009 -6.83 24.009 -10.77 c 0 -11.023 -11.285 5.382 -24.009 5.382 c -12.723 0 -24.007 -15.692 -24.007 -5.856 z" /> 
        <path d="M 303.112 260.531 c 0 6.364 10.29 12.313 23.014 12.313 s 23.061 -7.374 23.061 -12.313 c 0 -5.155 -10.337 7.756 -23.06 7.756 c -12.724 0 -23.015 -13.03 -23.015 -7.756 z" /> 
        <path d="M 313.35 267.006 c 0 -0.24 5.794 2.739 12.784 2.739 c 6.99 0 12.636 -3.192 12.636 -2.947 c 0 0.153 -5.646 2.92 -12.636 2.92 c -6.99 0 -12.783 -2.56 -12.783 -2.712 z" /> 
        <path d="M 313.584 269.323 c 0 2.084 8.081 2.73 12.597 2.73 c 4.517 0 12.117 -1.002 12.117 -3.086 c 0 -1.063 -7.597 1.67 -12.113 1.67 c -4.516 0 -12.6 -1.901 -12.6 -1.314 z" /> 
        <path d="M 219.382 263.43 c 0 6.433 -11.284 11.245 -24.007 11.245 c -12.724 0 -24.009 -6.83 -24.009 -10.77 c 0 -11.023 11.285 5.382 24.009 5.382 c 12.723 0 24.007 -15.692 24.007 -5.856 z" /> 
        <path d="M 218.444 260.531 c 0 6.364 -10.29 12.313 -23.014 12.313 c -12.723 0 -23.061 -7.374 -23.061 -12.313 c 0 -5.155 10.338 7.756 23.06 7.756 c 12.724 0 23.015 -13.03 23.015 -7.756 z" /> 
        <path d="M 208.205 267.006 c 0 -0.24 -5.793 2.739 -12.783 2.739 c -6.99 0 -12.636 -3.192 -12.636 -2.947 c 0 0.153 5.646 2.92 12.636 2.92 c 6.99 0 12.783 -2.56 12.783 -2.712 z" /> 
        <path d="M 207.972 269.323 c 0 2.084 -8.08 2.73 -12.597 2.73 c -4.516 0 -12.116 -1.002 -12.116 -3.086 c 0 -1.063 7.596 1.67 12.112 1.67 s 12.6 -1.901 12.6 -1.314 z" /> 
        <path d="M 252.648 207.653 c -3.364 11.751 -11.276 27.606 -14.881 45.394 c -6.529 32.214 -16.165 63.869 -40.248 79.595 c -7.337 4.667 -15.15 12.815 -18.027 23.609 c -2.085 7.822 4.124 32.409 34.441 50.976 c -32.946 -6.739 -81.462 -27.354 -95.982 -39.641 c 5.103 -21.33 8.279 -29.034 9.104 -35.447 c 1.456 -11.312 -1.256 -21.183 -3.598 -27.177 c -1.233 -2.004 -2.201 -4.039 -2.851 -6.112 c 0 0 -9.737 -19.112 -3.729 -47.509 c 5.862 -27.709 23.075 -59.116 43.009 -56.277 c 0 0 19.548 -35.07 37.804 -42.431 c 13.721 -5.533 21.265 3.624 21.436 10.93 c 0 0 -1.06 -7.567 11.007 -6.32 c 12.067 1.247 8.602 1.874 6.005 13.843 c 0 0 29.311 -8.152 16.51 36.567 z M 267.41 208.653 c 3.364 11.751 11.276 27.606 14.881 45.394 c 6.529 32.214 16.165 63.869 40.248 79.595 c 7.337 4.667 15.15 12.815 18.027 23.609 c 2.085 7.822 -4.124 32.409 -34.441 50.976 c 32.946 -6.739 81.462 -27.354 95.982 -39.641 c -5.103 -21.33 -8.279 -29.034 -9.104 -35.447 c -1.456 -11.312 1.256 -21.183 3.598 -27.177 c 1.233 -2.004 2.201 -4.039 2.851 -6.112 c 0 0 9.737 -19.112 3.729 -47.509 c -5.862 -27.709 -23.075 -59.116 -43.009 -56.277 c 0 0 -19.548 -35.07 -37.804 -42.431 c -13.721 -5.533 -21.265 3.624 -21.436 10.93 c 0 0 1.06 -7.567 -11.007 -6.32 c -12.067 1.247 -8.602 1.874 -6.005 13.843 c 0 0 -29.311 -8.152 -16.51 36.567 z" /> 
        <path d="M 408.974 290.02 s 10.53 -17.448 6.783 -44.76 c -3.656 -26.658 -17.808 -57.594 -36.897 -56.277 c 0 0 -16.126 -34.557 -32.91 -42.785 c -12.625 -6.189 -20.406 1.975 -21.064 8.886 c 0 0 -7.57 -10.912 -19.088 -10.557 c -11.52 0.354 -16.127 11.874 -14.481 23.393 c 0 0 -11.26 -3.977 -16.126 8.885 c -4.608 12.177 12.802 42.132 16.4 61.794 c 4.332 23.666 6.8 53.112 28.682 73.142 c 21.882 20.03 78.992 2.632 88.701 -21.722 z" /> 
        <path d="M 276.864 193.735 c 0.769 -1.549 1.187 -3.183 1.111 -4.75 c -0.513 -9.87 7.489 -16.346 19.703 3.8 c 13.006 21.45 15.175 32.604 19.542 35.064 c 5.746 3.239 5.519 -5.054 5.519 -5.054 c -2.783 -11.067 -12.672 -28.063 -19.408 -39.083 c -6.745 -11.01 -8.749 -17.423 -8.749 -17.423 c 4.892 -17.1 16.45 -11.205 28.157 3.259 c 10.574 13.063 18.744 33.221 23.038 41.686 c 4.294 8.474 9.719 3.752 10.023 2.774 c 0.313 -0.979 -0.618 -3.648 -0.618 -3.648 c -4.047 -14.383 -22.648 -47.49 -22.648 -47.49 c 1.301 -10.755 10.279 -10.437 25.27 9.604 c 17.394 23.255 21.365 53.61 27.303 56.677 c 5.22 2.695 7.296 -3.116 7.296 -3.116 l -4.883 -16.188 c 3.458 -15.086 15.761 -3.06 16.236 -2.584 c -6.413 -11.248 -14.858 -18.953 -24.586 -18.278 c 0 0 -16.131 -34.561 -32.908 -42.788 c -12.626 -6.185 -20.407 1.976 -21.072 8.892 c 0 0 -7.561 -10.916 -19.085 -10.564 c -11.514 0.36 -16.122 11.875 -14.478 23.398 c 0 0 -11.258 -3.98 -16.131 8.883 c -1.53 4.037 -0.637 10.013 1.368 16.929 z" /> 
        <path d="M 287.235 223.392 c 1.9 5.395 3.513 10.589 4.357 15.206 c 4.33 23.67 6.797 53.11 28.683 73.144 c 21.876 20.024 78.99 2.63 88.695 -21.723 c 0 0 10.53 -17.45 6.786 -44.76 c -0.586 -4.28 -1.44 -8.668 -2.553 -13.016 c 0 0 -0.979 56.173 -41.516 59.284 c -31.826 2.442 -60.09 -1.623 -84.452 -68.135 z" /> 
        <path d="M 408.974 290.02 s 10.53 -17.448 6.783 -44.76 c -3.656 -26.658 -17.808 -57.594 -36.897 -56.277 c 0 0 -16.126 -34.557 -32.91 -42.785 c -12.625 -6.189 -20.406 1.975 -21.064 8.886 c 0 0 -7.57 -10.912 -19.088 -10.557 c -11.52 0.354 -16.127 11.874 -14.481 23.393 c 0 0 -11.26 -3.977 -16.126 8.885 c -4.608 12.177 12.802 42.132 16.4 61.794 c 4.332 23.666 6.8 53.112 28.682 73.142 c 21.882 20.03 78.992 2.632 88.701 -21.722 z M 324.886 155.084 s 22.05 28.632 30.607 57.265 M 378.86 188.983 s 9.874 21.72 13.494 38.177 M 291.317 167.92 s 20.075 22.708 31.65 55.62" /> 
        <path d="M 432.855 453.86 s -30.992 -115.009 -32.002 -132.762 c -1.01 -17.754 2.969 -28.085 2.969 -28.085 l -8.907 9.322 l -3.681 -11.816 c -0.535 -1.722 -2.79 -2.316 -4.037 -0.95 l -7.66 8.372 l -10.45 -13.24 c -1.188 -1.486 -3.622 -1.07 -4.157 0.772 l -4.987 16.387 l -16.565 -6.591 c -1.544 -0.594 -3.266 0.535 -3.266 2.197 v 18.703 l -18.525 -7.6 s 20.78 14.546 24.106 31.825 c 3.325 17.279 14.666 114.416 14.666 114.416 s 13.537 7.363 32.24 7.303 c 32.598 -0.06 40.256 -8.253 40.256 -8.253 z" /> 
        <path d="M 377.162 460.51 s 13.477 3.385 30.756 1.069 c 20.425 -2.731 24.937 -7.719 24.937 -7.719 s -21.077 -77.662 -28.975 -114.891 l -1.9 3.8 c -2.612 -13.894 -19.415 -28.381 -30.577 -15.734 c -7.838 8.906 -4.81 32.121 -0.891 64.125 c 3.8 30.697 6.65 69.35 6.65 69.35 z" /> 
        <path d="M 431.905 451.96 s -30.042 -113.109 -31.052 -130.862 c -0.594 -10.807 2.612 -19.95 5.225 -25.473 M 322.062 313.2 s 20.84 11.34 23.63 27.194 c 3.03 17.337 14.667 111.566 14.667 111.566" /> 
        <path d="M 113.026 290.02 s -10.53 -17.448 -6.783 -44.76 c 3.656 -26.658 17.808 -57.594 36.897 -56.277 c 0 0 16.126 -34.557 32.91 -42.785 c 12.625 -6.189 20.406 1.975 21.064 8.886 c 0 0 7.57 -10.912 19.088 -10.557 c 11.52 0.354 16.127 11.874 14.481 23.393 c 0 0 11.26 -3.977 16.126 8.885 c 4.608 12.177 -12.802 42.132 -16.4 61.794 c -4.332 23.666 -6.8 53.112 -28.682 73.142 c -21.882 20.03 -78.992 2.632 -88.701 -21.722 z" /> 
        <path d="M 245.137 193.735 c -0.77 -1.549 -1.188 -3.183 -1.112 -4.75 c 0.513 -9.87 -7.489 -16.346 -19.703 3.8 c -13.005 21.45 -15.175 32.604 -19.541 35.064 c -5.747 3.239 -5.52 -5.054 -5.52 -5.054 c 2.784 -11.067 12.672 -28.063 19.408 -39.083 c 6.745 -11.01 8.75 -17.423 8.75 -17.423 c -4.893 -17.1 -16.451 -11.205 -28.158 3.259 c -10.573 13.063 -18.743 33.221 -23.037 41.686 c -4.294 8.474 -9.72 3.752 -10.024 2.774 c -0.313 -0.979 0.618 -3.648 0.618 -3.648 c 4.047 -14.383 22.649 -47.49 22.649 -47.49 c -1.302 -10.755 -10.28 -10.437 -25.27 9.604 c -17.395 23.255 -21.366 53.61 -27.304 56.677 c -5.22 2.695 -7.295 -3.116 -7.295 -3.116 l 4.883 -16.188 c -3.458 -15.086 -15.762 -3.06 -16.237 -2.584 c 6.413 -11.248 14.858 -18.953 24.586 -18.278 c 0 0 16.131 -34.561 32.908 -42.788 c 12.626 -6.185 20.407 1.976 21.072 8.892 c 0 0 7.561 -10.916 19.085 -10.564 c 11.514 0.36 16.122 11.875 14.479 23.398 c 0 0 11.257 -3.98 16.13 8.883 c 1.53 4.037 0.637 10.013 -1.367 16.929 z" /> 
        <path d="M 234.765 223.392 c -1.9 5.395 -3.513 10.589 -4.357 15.206 c -4.33 23.67 -6.797 53.11 -28.683 73.144 c -21.876 20.024 -78.99 2.63 -88.695 -21.723 c 0 0 -10.53 -17.45 -6.786 -44.76 c 0.586 -4.28 1.44 -8.668 2.553 -13.016 c 0 0 0.979 56.173 41.516 59.284 c 31.826 2.442 60.09 -1.623 84.452 -68.135 z" /> 
        <path d="M 113.026 290.02 s -10.53 -17.448 -6.783 -44.76 c 3.656 -26.658 17.808 -57.594 36.897 -56.277 c 0 0 16.126 -34.557 32.91 -42.785 c 12.625 -6.189 20.406 1.975 21.064 8.886 c 0 0 7.57 -10.912 19.088 -10.557 c 11.52 0.354 16.127 11.874 14.481 23.393 c 0 0 11.26 -3.977 16.126 8.885 c 4.608 12.177 -12.802 42.132 -16.4 61.794 c -4.332 23.666 -6.8 53.112 -28.682 73.142 c -21.882 20.03 -78.992 2.632 -88.701 -21.722 z M 197.114 155.084 s -22.05 28.632 -30.607 57.265 M 143.14 188.983 s -9.874 21.72 -13.494 38.177 M 230.683 167.92 s -20.075 22.708 -31.649 55.62" /> 
        <path d="M 89.145 453.86 s 30.992 -115.009 32.002 -132.762 c 1.01 -17.754 -2.968 -28.085 -2.968 -28.085 l 8.906 9.322 l 3.681 -11.816 c 0.535 -1.722 2.79 -2.316 4.038 -0.95 l 7.66 8.372 l 10.45 -13.24 c 1.187 -1.486 3.62 -1.07 4.156 0.772 l 4.987 16.387 l 16.565 -6.591 c 1.544 -0.594 3.266 0.535 3.266 2.197 v 18.703 l 18.525 -7.6 s -20.78 14.546 -24.106 31.825 c -3.325 17.279 -14.666 114.416 -14.666 114.416 s -13.537 7.363 -32.24 7.303 c -32.597 -0.06 -40.256 -8.253 -40.256 -8.253 z" /> 
        <path d="M 144.838 460.51 s -13.477 3.385 -30.756 1.069 c -20.425 -2.731 -24.937 -7.719 -24.937 -7.719 s 21.077 -77.662 28.975 -114.891 l 1.9 3.8 c 2.612 -13.894 19.415 -28.381 30.577 -15.734 c 7.838 8.906 4.81 32.121 0.891 64.125 c -3.8 30.697 -6.65 69.35 -6.65 69.35 z" /> 
        <path d="M 90.095 451.96 s 30.042 -113.109 31.052 -130.862 c 0.594 -10.807 -2.612 -19.95 -5.225 -25.473 M 199.938 313.2 s -20.84 11.34 -23.63 27.194 c -3.03 17.337 -14.667 111.566 -14.667 111.566" />
    </clipPath>
    <linearGradient id="fill">
      <stop
        offset="0.599964"
        stop-color="#f3f3f3"
        stop-opacity="1"
      >
        <animate
          attributeName="offset"
          values="-2; -2; 1"
          keyTimes="0; 0.25; 1"
          dur="2s"
          repeatCount="indefinite"
        ></animate>
      </stop>
      <stop
        offset="1.59996"
        stop-color="#ecebeb"
        stop-opacity="1"
      >
        <animate
          attributeName="offset"
          values="-1; -1; 2"
          keyTimes="0; 0.25; 1"
          dur="2s"
          repeatCount="indefinite"
        ></animate>
      </stop>
      <stop
        offset="2.59996"
        stop-color="#f3f3f3"
        stop-opacity="1"
      >
        <animate
          attributeName="offset"
          values="0; 0; 3"
          keyTimes="0; 0.25; 1"
          dur="2s"
          repeatCount="indefinite"
        ></animate>
      </stop>
    </linearGradient>
  </defs>
</svg>